<svg width="20" height="20" viewBox="0 0 20 20" fill="none" xmlns="http://www.w3.org/2000/svg">
<path d="M7.325 7.7V4.58333C7.325 4.0308 7.54449 3.5009 7.93519 3.11019C8.32589 2.71949 8.8558 2.5 9.40833 2.5C9.96087 2.5 10.4908 2.71949 10.8815 3.11019C11.2722 3.5009 11.4917 4.0308 11.4917 4.58333V7.7C12.5 7.025 13.1583 5.88333 13.1583 4.58333C13.1583 2.50833 11.4833 0.833333 9.40833 0.833333C7.33333 0.833333 5.65833 2.50833 5.65833 4.58333C5.65833 5.88333 6.31666 7.025 7.325 7.7ZM11.9083 9.75833C11.675 9.64167 11.425 9.58333 11.1667 9.58333H10.6583V4.58333C10.6583 3.89167 10.1 3.33333 9.40833 3.33333C8.71667 3.33333 8.15833 3.89167 8.15833 4.58333V13.5333L5.29166 12.9333C4.98333 12.8667 4.65833 12.9667 4.43333 13.1917C4.075 13.5583 4.075 14.1417 4.43333 14.5083L7.775 17.85C8.09167 18.1583 8.51667 18.3333 8.95833 18.3333H14.0417C14.875 18.3333 15.575 17.725 15.6917 16.9L16.2167 13.175C16.3167 12.4667 15.95 11.7667 15.3083 11.45L11.9083 9.75833Z" fill="#F8F8F8"/>
</svg>
