<svg width="32" height="17" viewBox="0 0 32 17" fill="none" xmlns="http://www.w3.org/2000/svg">
<path d="M0 1.18553C0 0.530213 0.7136 0 1.592 0H14.408C14.8302 9.37052e-09 15.2352 0.124904 15.5337 0.347234C15.8323 0.569564 16 0.871109 16 1.18553C16 1.49995 15.8323 1.8015 15.5337 2.02383C15.2352 2.24616 14.8302 2.37106 14.408 2.37106H1.592C1.16977 2.37106 0.764844 2.24616 0.466286 2.02383C0.167728 1.8015 0 1.49995 0 1.18553Z" fill="#DADADA"/>
<path d="M0 8.34039C0 7.68507 0.7136 7.15486 1.592 7.15486H30.408C30.8302 7.15486 31.2351 7.27976 31.5337 7.50209C31.8323 7.72442 32 8.02596 32 8.34039C32 8.65481 31.8323 8.95635 31.5337 9.17868C31.2351 9.40102 30.8302 9.52592 30.408 9.52592H1.592C1.16977 9.52592 0.764844 9.40102 0.466286 9.17868C0.167728 8.95635 0 8.65481 0 8.34039Z" fill="#DADADA"/>
<path d="M1.592 14.3098C1.16977 14.3098 0.764844 14.4347 0.466286 14.657C0.167728 14.8793 0 15.1809 0 15.4953C0 15.8097 0.167728 16.1113 0.466286 16.3336C0.764844 16.5559 1.16977 16.6808 1.592 16.6808H20.808C21.2302 16.6808 21.6352 16.5559 21.9337 16.3336C22.2323 16.1113 22.4 15.8097 22.4 15.4953C22.4 15.1809 22.2323 14.8793 21.9337 14.657C21.6352 14.4347 21.2302 14.3098 20.808 14.3098H1.592Z" fill="#DADADA"/>
</svg>
