<svg width="8" height="15" viewBox="0 0 8 15" fill="none" xmlns="http://www.w3.org/2000/svg">
<path d="M1.07966 14.9981C0.827835 14.9986 0.583791 14.9116 0.38989 14.7522C0.280757 14.6624 0.190547 14.5522 0.124425 14.4278C0.058302 14.3034 0.0175667 14.1674 0.00455183 14.0273C-0.00846304 13.8873 0.00649843 13.7461 0.0485789 13.6118C0.0906595 13.4776 0.159031 13.3528 0.249781 13.2448L5.07814 7.51466L0.422223 1.77382C0.332698 1.66447 0.265843 1.53865 0.2255 1.40358C0.185158 1.26852 0.172124 1.12688 0.187147 0.986799C0.20217 0.846722 0.244954 0.710971 0.31304 0.587349C0.381126 0.463727 0.473172 0.354671 0.583886 0.266449C0.695398 0.169126 0.825985 0.0957163 0.967454 0.0508276C1.10892 0.00593889 1.25822 -0.00945949 1.40597 0.00559807C1.55373 0.0206556 1.69675 0.0658444 1.82606 0.138328C1.95537 0.210813 2.06818 0.309027 2.15741 0.426808L7.36299 6.84115C7.5215 7.03244 7.60816 7.27239 7.60816 7.52001C7.60816 7.76763 7.5215 8.00757 7.36299 8.19886L1.97419 14.6132C1.86608 14.7426 1.72873 14.8448 1.57331 14.9117C1.41789 14.9786 1.24876 15.0082 1.07966 14.9981Z" fill="#AEAEAE" fill-opacity="0.7"/>
</svg>
