<svg width="17" height="19" viewBox="0 0 17 19" fill="none" xmlns="http://www.w3.org/2000/svg">
<path fill-rule="evenodd" clip-rule="evenodd" d="M14.2691 6.0353L13.8423 5.18023C13.4812 4.45671 12.6809 4.20711 12.0532 4.62226V4.62226C11.7545 4.82542 11.398 4.88306 11.0624 4.78247C10.7268 4.68187 10.4396 4.43131 10.2642 4.08602C10.1514 3.86656 10.0907 3.61658 10.0884 3.36139V3.36139C10.0986 2.95224 9.9649 2.55576 9.71775 2.26226C9.4706 1.96876 9.13106 1.80325 8.77648 1.80342H7.91648C7.5691 1.80341 7.23604 1.9632 6.991 2.24744C6.74595 2.53167 6.60913 2.91691 6.6108 3.31791V3.31791C6.6005 4.14584 6.01612 4.81075 5.29883 4.81066C5.07776 4.80801 4.86122 4.73802 4.6711 4.60776V4.60776C4.04348 4.19262 3.24318 4.44221 2.88206 5.16574L2.42381 6.0353C2.06313 6.75792 2.2764 7.68117 2.90089 8.10052V8.10052C3.30682 8.37105 3.55688 8.87103 3.55688 9.41211C3.55688 9.95319 3.30682 10.4532 2.90089 10.7237V10.7237C2.2772 11.1402 2.06369 12.0612 2.42381 12.7817V12.7817L2.85695 13.644C3.02615 13.9964 3.31004 14.2565 3.6458 14.3667C3.98156 14.4768 4.34151 14.428 4.64599 14.231V14.231C4.94531 14.0293 5.302 13.9741 5.63678 14.0775C5.97155 14.1809 6.25667 14.4344 6.42875 14.7817C6.54159 15.0011 6.60222 15.2511 6.60452 15.5063V15.5063C6.60452 16.3427 7.1919 17.0208 7.91648 17.0208H8.77648C9.49861 17.0208 10.085 16.3472 10.0884 15.5136V15.5136C10.0868 15.1113 10.2244 14.725 10.4709 14.4405C10.7173 14.1561 11.0519 13.9971 11.4004 13.9991C11.6209 14.0059 11.8366 14.0756 12.0281 14.202V14.202C12.6541 14.6183 13.4539 14.3721 13.8172 13.6512V13.6512L14.2691 12.7817C14.4441 12.435 14.4921 12.0222 14.4026 11.6346C14.313 11.2469 14.0933 10.9165 13.7921 10.7165V10.7165C13.4908 10.5164 13.2711 10.186 13.1816 9.79835C13.092 9.41072 13.14 8.99788 13.315 8.65124C13.4288 8.42195 13.5934 8.23185 13.7921 8.10052V8.10052C14.4128 7.6814 14.6256 6.76354 14.2691 6.04255V6.04255V6.0353Z" stroke="#4B4B4B" stroke-width="1.5" stroke-linecap="round" stroke-linejoin="round"/>
<ellipse cx="8.34968" cy="9.41209" rx="1.80787" ry="2.08696" stroke="#4B4B4B" stroke-width="1.5" stroke-linecap="round" stroke-linejoin="round"/>
</svg>
