<svg width="17" height="19" viewBox="0 0 17 19" fill="none" xmlns="http://www.w3.org/2000/svg">
<path fill-rule="evenodd" clip-rule="evenodd" d="M2.40085 10.9148V10.7414C2.42288 10.2285 2.56529 9.73156 2.81338 9.30178C3.22633 8.7855 3.50902 8.15283 3.63178 7.47015C3.63178 6.94253 3.63178 6.40736 3.6717 5.87973C3.87797 3.33958 6.05373 1.58334 8.20287 1.58334H8.2561C10.4052 1.58334 12.581 3.33958 12.7939 5.87973C12.8338 6.40736 12.7939 6.94253 12.8272 7.47015C12.9516 8.15441 13.234 8.78904 13.6456 9.30931C13.8955 9.73529 14.0382 10.2304 14.0581 10.7414V10.9073C14.073 11.5964 13.8674 12.2683 13.4792 12.7992C12.9664 13.4199 12.2704 13.8061 11.5231 13.8846C9.33165 14.156 7.12066 14.156 4.92925 13.8846C4.18277 13.8027 3.4878 13.4171 2.97307 12.7992C2.59094 12.2679 2.3881 11.6 2.40085 10.9148Z" stroke="#4B4B4B" stroke-width="1.5" stroke-linecap="round" stroke-linejoin="round"/>
<path d="M6.55276 16.5076C6.89516 17.0038 7.39798 17.3248 7.94994 17.3998C8.50189 17.4748 9.05746 17.2975 9.49369 16.9071C9.62786 16.7917 9.74859 16.6574 9.85299 16.5076" stroke="#4B4B4B" stroke-width="1.5" stroke-linecap="round" stroke-linejoin="round"/>
</svg>
