<svg width="17" height="19" viewBox="0 0 17 19" fill="none" xmlns="http://www.w3.org/2000/svg">
<path d="M10.9865 8.63981C12.2353 8.63981 13.2476 7.47131 13.2476 6.02969C13.2476 4.58885 12.2353 3.41956 10.9865 3.41956" stroke="#4B4B4B" stroke-width="1.5" stroke-linecap="round" stroke-linejoin="round"/>
<path d="M12.0262 11.4764C12.3993 11.5056 12.7696 11.5674 13.1352 11.6608C13.642 11.7772 14.2523 12.0171 14.469 12.5419C14.6076 12.8784 14.6076 13.2703 14.469 13.6067C14.253 14.1316 13.642 14.3715 13.1352 14.4918" stroke="#4B4B4B" stroke-width="1.5" stroke-linecap="round" stroke-linejoin="round"/>
<path fill-rule="evenodd" clip-rule="evenodd" d="M6.57774 12.0383C9.10833 12.0383 11.27 12.4809 11.27 14.2487C11.27 16.0172 9.12205 16.4748 6.57774 16.4748C4.04714 16.4748 1.88619 16.0331 1.88619 14.2645C1.88619 12.4959 4.03342 12.0383 6.57774 12.0383Z" stroke="#4B4B4B" stroke-width="1.5" stroke-linecap="round" stroke-linejoin="round"/>
<path fill-rule="evenodd" clip-rule="evenodd" d="M6.57773 9.51491C4.90849 9.51491 3.57119 7.97037 3.57119 6.04345C3.57119 4.11732 4.90849 2.57278 6.57773 2.57278C8.24696 2.57278 9.58496 4.11732 9.58496 6.04345C9.58496 7.97037 8.24696 9.51491 6.57773 9.51491Z" stroke="#4B4B4B" stroke-width="1.5" stroke-linecap="round" stroke-linejoin="round"/>
</svg>
