<svg width="20" height="20" viewBox="0 0 20 20" fill="none" xmlns="http://www.w3.org/2000/svg">
<g clip-path="url(#clip0_111_4396)">
<path d="M14.1667 9.16667C14.1667 11.4667 12.3 13.3333 9.99999 13.3333C7.69999 13.3333 5.83332 11.4667 5.83332 9.16667H4.16666C4.16666 12.1083 6.34166 14.525 9.16666 14.9333V17.5H10.8333V14.9333C13.6583 14.525 15.8333 12.1083 15.8333 9.16667H14.1667Z" fill="white"/>
<path d="M10 11.6667C11.3833 11.6667 12.5 10.55 12.5 9.16667V4.16667C12.5 2.78334 11.3833 1.66667 10 1.66667C8.61667 1.66667 7.5 2.78334 7.5 4.16667V9.16667C7.5 10.55 8.61667 11.6667 10 11.6667ZM9.16667 4.16667C9.16667 3.70834 9.54167 3.33334 10 3.33334C10.4583 3.33334 10.8333 3.70834 10.8333 4.16667V9.16667C10.8333 9.625 10.4583 10 10 10C9.54167 10 9.16667 9.625 9.16667 9.16667V4.16667Z" fill="white"/>
<path d="M10 11.6667C11.3833 11.6667 12.5 10.55 12.5 9.16667V4.16667C12.5 2.78334 11.3833 1.66667 10 1.66667C8.61667 1.66667 7.5 2.78334 7.5 4.16667V9.16667C7.5 10.55 8.61667 11.6667 10 11.6667Z" fill="white"/>
</g>
<defs>
<clipPath id="clip0_111_4396">
<rect width="20" height="20" fill="white"/>
</clipPath>
</defs>
</svg>
